<mxfile host="65bd71144e">
    <diagram id="xmujrMILipFPsyisqHQF" name="Page-1">
        <mxGraphModel dx="956" dy="647" grid="0" gridSize="50" guides="1" tooltips="1" connect="1" arrows="1" fold="1" page="0" pageScale="1" pageWidth="850" pageHeight="1100" background="#ffffff" math="0" shadow="0">
            <root>
                <mxCell id="0"/>
                <mxCell id="1" parent="0"/>
                <mxCell id="2" value="Amount" style="rounded=0;whiteSpace=wrap;html=1;strokeColor=#666666;shadow=0;fillColor=#f5f5f5;gradientColor=#b3b3b3;fontColor=#000000;" parent="1" vertex="1">
                    <mxGeometry y="300" width="120" height="60" as="geometry"/>
                </mxCell>
                <mxCell id="3" value="InvesmentCompany" style="rounded=0;whiteSpace=wrap;html=1;strokeColor=#666666;shadow=0;fillColor=#f5f5f5;gradientColor=#b3b3b3;fontColor=#000000;" parent="1" vertex="1">
                    <mxGeometry x="170" y="575" width="120" height="60" as="geometry"/>
                </mxCell>
                <mxCell id="4" value="InvestmentLevel" style="rounded=1;whiteSpace=wrap;html=1;strokeColor=#666666;shadow=0;fillColor=#f5f5f5;gradientColor=#b3b3b3;fontColor=#000000;" parent="1" vertex="1">
                    <mxGeometry x="-200" y="575" width="120" height="60" as="geometry"/>
                </mxCell>
                <mxCell id="5" value="&lt;div&gt;Quarter&lt;/div&gt;" style="rounded=0;whiteSpace=wrap;html=1;strokeColor=#666666;shadow=0;fillColor=#f5f5f5;gradientColor=#b3b3b3;fontColor=#000000;" parent="1" vertex="1">
                    <mxGeometry x="170" y="810" width="120" height="60" as="geometry"/>
                </mxCell>
                <mxCell id="6" value="FootNotes" style="ellipse;whiteSpace=wrap;html=1;strokeColor=#666666;shadow=0;fillColor=#f5f5f5;gradientColor=#b3b3b3;fontColor=#000000;" parent="1" vertex="1">
                    <mxGeometry x="-190" y="670" width="90" height="40" as="geometry"/>
                </mxCell>
                <mxCell id="7" value="MaturityDate" style="ellipse;whiteSpace=wrap;html=1;strokeColor=#666666;shadow=0;fillColor=#f5f5f5;gradientColor=#b3b3b3;fontColor=#000000;" parent="1" vertex="1">
                    <mxGeometry x="-310" y="665" width="80" height="40" as="geometry"/>
                </mxCell>
                <mxCell id="8" value="InterestRate" style="ellipse;whiteSpace=wrap;html=1;strokeColor=#666666;shadow=0;fillColor=#f5f5f5;gradientColor=#b3b3b3;fontColor=#000000;" parent="1" vertex="1">
                    <mxGeometry x="-80" y="660" width="80" height="50" as="geometry"/>
                </mxCell>
                <mxCell id="9" value="BaseType" style="ellipse;shape=doubleEllipse;margin=3;whiteSpace=wrap;html=1;align=center;strokeColor=#666666;shadow=0;fillColor=#f5f5f5;gradientColor=#b3b3b3;fontColor=#000000;" parent="1" vertex="1">
                    <mxGeometry x="-310" y="530" width="100" height="40" as="geometry"/>
                </mxCell>
                <mxCell id="10" value="" style="endArrow=none;html=1;rounded=0;strokeColor=#666666;shadow=0;fillColor=#f5f5f5;gradientColor=#b3b3b3;fontColor=#000000;" parent="1" source="6" target="4" edge="1">
                    <mxGeometry relative="1" as="geometry">
                        <mxPoint x="-490" y="619.26" as="sourcePoint"/>
                        <mxPoint x="-330" y="619.26" as="targetPoint"/>
                    </mxGeometry>
                </mxCell>
                <mxCell id="11" value="" style="endArrow=none;html=1;rounded=0;strokeColor=#666666;shadow=0;fillColor=#f5f5f5;gradientColor=#b3b3b3;fontColor=#000000;" parent="1" source="7" target="4" edge="1">
                    <mxGeometry relative="1" as="geometry">
                        <mxPoint x="-490" y="619.26" as="sourcePoint"/>
                        <mxPoint x="-330" y="619.26" as="targetPoint"/>
                    </mxGeometry>
                </mxCell>
                <mxCell id="12" value="" style="endArrow=none;html=1;rounded=0;strokeColor=#666666;shadow=0;fillColor=#f5f5f5;gradientColor=#b3b3b3;fontColor=#000000;" parent="1" source="8" target="4" edge="1">
                    <mxGeometry relative="1" as="geometry">
                        <mxPoint x="-233.85549284123772" y="732.6867042952572" as="sourcePoint"/>
                        <mxPoint x="-330" y="619.26" as="targetPoint"/>
                    </mxGeometry>
                </mxCell>
                <mxCell id="13" value="" style="endArrow=none;html=1;rounded=0;strokeColor=#666666;shadow=0;fillColor=#f5f5f5;gradientColor=#b3b3b3;fontColor=#000000;" parent="1" source="9" target="4" edge="1">
                    <mxGeometry relative="1" as="geometry">
                        <mxPoint x="-394.1669012367829" y="615.0045610705786" as="sourcePoint"/>
                        <mxPoint x="-330" y="619.26" as="targetPoint"/>
                    </mxGeometry>
                </mxCell>
                <mxCell id="14" value="FairValue" style="ellipse;whiteSpace=wrap;html=1;align=center;strokeColor=#666666;shadow=0;fillColor=#f5f5f5;gradientColor=#b3b3b3;fontColor=#000000;" parent="1" vertex="1">
                    <mxGeometry x="10" y="220" width="100" height="40" as="geometry"/>
                </mxCell>
                <mxCell id="15" value="" style="endArrow=none;html=1;rounded=0;exitX=0.5;exitY=1;exitDx=0;exitDy=0;strokeColor=#666666;shadow=0;fillColor=#f5f5f5;gradientColor=#b3b3b3;fontColor=#000000;" parent="1" source="14" target="2" edge="1">
                    <mxGeometry relative="1" as="geometry">
                        <mxPoint x="310" y="550" as="sourcePoint"/>
                        <mxPoint x="470" y="550" as="targetPoint"/>
                    </mxGeometry>
                </mxCell>
                <mxCell id="16" value="Cost" style="ellipse;whiteSpace=wrap;html=1;align=center;strokeColor=#666666;shadow=0;fillColor=#f5f5f5;gradientColor=#b3b3b3;fontColor=#000000;" parent="1" vertex="1">
                    <mxGeometry x="150" y="260" width="100" height="40" as="geometry"/>
                </mxCell>
                <mxCell id="17" value="" style="endArrow=none;html=1;rounded=0;strokeColor=#666666;shadow=0;fillColor=#f5f5f5;gradientColor=#b3b3b3;fontColor=#000000;" parent="1" source="16" target="2" edge="1">
                    <mxGeometry relative="1" as="geometry">
                        <mxPoint x="310" y="550" as="sourcePoint"/>
                        <mxPoint x="470" y="550" as="targetPoint"/>
                    </mxGeometry>
                </mxCell>
                <mxCell id="18" value="Investing" style="shape=rhombus;perimeter=rhombusPerimeter;whiteSpace=wrap;html=1;align=center;strokeColor=#666666;shadow=0;fillColor=#f5f5f5;gradientColor=#b3b3b3;fontColor=#000000;" parent="1" vertex="1">
                    <mxGeometry x="160" y="710" width="120" height="60" as="geometry"/>
                </mxCell>
                <mxCell id="19" value="" style="endArrow=none;html=1;rounded=0;strokeColor=#666666;shadow=0;fillColor=#f5f5f5;gradientColor=#b3b3b3;fontColor=#000000;" parent="1" source="5" target="44" edge="1">
                    <mxGeometry relative="1" as="geometry">
                        <mxPoint x="-30" y="660" as="sourcePoint"/>
                        <mxPoint x="100" y="870" as="targetPoint"/>
                    </mxGeometry>
                </mxCell>
                <mxCell id="20" value="Liens" style="ellipse;whiteSpace=wrap;html=1;align=center;strokeColor=#666666;shadow=0;fillColor=#f5f5f5;gradientColor=#b3b3b3;fontColor=#000000;" parent="1" vertex="1">
                    <mxGeometry x="90" y="500" width="100" height="40" as="geometry"/>
                </mxCell>
                <mxCell id="21" value="" style="endArrow=none;html=1;rounded=0;exitX=0.5;exitY=1;exitDx=0;exitDy=0;strokeColor=#666666;shadow=0;fillColor=#f5f5f5;gradientColor=#b3b3b3;fontColor=#000000;" parent="1" source="20" target="3" edge="1">
                    <mxGeometry relative="1" as="geometry">
                        <mxPoint x="480" y="580" as="sourcePoint"/>
                        <mxPoint x="640" y="580" as="targetPoint"/>
                    </mxGeometry>
                </mxCell>
                <mxCell id="22" value="Afiliation" style="ellipse;whiteSpace=wrap;html=1;align=center;strokeColor=#666666;shadow=0;fillColor=#f5f5f5;gradientColor=#b3b3b3;fontColor=#000000;" parent="1" vertex="1">
                    <mxGeometry x="200" y="490" width="100" height="40" as="geometry"/>
                </mxCell>
                <mxCell id="23" value="" style="endArrow=none;html=1;rounded=0;strokeColor=#666666;shadow=0;fillColor=#f5f5f5;gradientColor=#b3b3b3;fontColor=#000000;" parent="1" source="3" target="22" edge="1">
                    <mxGeometry relative="1" as="geometry">
                        <mxPoint x="480" y="580" as="sourcePoint"/>
                        <mxPoint x="520" y="620" as="targetPoint"/>
                    </mxGeometry>
                </mxCell>
                <mxCell id="24" value="Industry" style="whiteSpace=wrap;html=1;align=center;strokeColor=#666666;shadow=0;fillColor=#f5f5f5;gradientColor=#b3b3b3;fontColor=#000000;" parent="1" vertex="1">
                    <mxGeometry x="460" y="430" width="100" height="40" as="geometry"/>
                </mxCell>
                <mxCell id="25" value="BelongsTo" style="shape=rhombus;perimeter=rhombusPerimeter;whiteSpace=wrap;html=1;align=center;strokeColor=#666666;shadow=0;fillColor=#f5f5f5;gradientColor=#b3b3b3;fontColor=#000000;" parent="1" vertex="1">
                    <mxGeometry x="410" y="575" width="120" height="60" as="geometry"/>
                </mxCell>
                <mxCell id="26" value="Signifies" style="shape=rhombus;perimeter=rhombusPerimeter;whiteSpace=wrap;html=1;align=center;strokeColor=#666666;shadow=0;fillColor=#f5f5f5;gradientColor=#b3b3b3;fontColor=#000000;" parent="1" vertex="1">
                    <mxGeometry y="575" width="120" height="60" as="geometry"/>
                </mxCell>
                <mxCell id="27" value="&lt;u&gt;ILvlID&lt;/u&gt;" style="ellipse;whiteSpace=wrap;html=1;align=center;strokeColor=#666666;shadow=0;fillColor=#f5f5f5;gradientColor=#b3b3b3;fontColor=#000000;" parent="1" vertex="1">
                    <mxGeometry x="-320" y="585" width="100" height="40" as="geometry"/>
                </mxCell>
                <mxCell id="28" value="" style="endArrow=none;html=1;rounded=0;strokeColor=#666666;shadow=0;fillColor=#f5f5f5;gradientColor=#b3b3b3;fontColor=#000000;" parent="1" source="27" target="4" edge="1">
                    <mxGeometry relative="1" as="geometry">
                        <mxPoint x="-540" y="589.26" as="sourcePoint"/>
                        <mxPoint x="-380" y="589.26" as="targetPoint"/>
                    </mxGeometry>
                </mxCell>
                <mxCell id="29" value="Has" style="shape=rhombus;perimeter=rhombusPerimeter;whiteSpace=wrap;html=1;align=center;strokeColor=#666666;shadow=0;fillColor=#f5f5f5;gradientColor=#b3b3b3;fontColor=#000000;" parent="1" vertex="1">
                    <mxGeometry x="-180" y="450" width="120" height="60" as="geometry"/>
                </mxCell>
                <mxCell id="30" value="" style="edgeStyle=entityRelationEdgeStyle;fontSize=12;html=1;endArrow=ERoneToMany;rounded=0;strokeColor=#666666;shadow=0;fillColor=#f5f5f5;gradientColor=#b3b3b3;fontColor=#000000;" parent="1" source="18" target="5" edge="1">
                    <mxGeometry width="100" height="100" relative="1" as="geometry">
                        <mxPoint x="420" y="800" as="sourcePoint"/>
                        <mxPoint x="520" y="700" as="targetPoint"/>
                    </mxGeometry>
                </mxCell>
                <mxCell id="31" value="" style="edgeStyle=entityRelationEdgeStyle;fontSize=12;html=1;endArrow=ERoneToMany;rounded=0;strokeColor=#666666;shadow=0;fillColor=#f5f5f5;gradientColor=#b3b3b3;fontColor=#000000;" parent="1" source="18" target="3" edge="1">
                    <mxGeometry width="100" height="100" relative="1" as="geometry">
                        <mxPoint x="420" y="800" as="sourcePoint"/>
                        <mxPoint x="520" y="700" as="targetPoint"/>
                    </mxGeometry>
                </mxCell>
                <mxCell id="32" value="" style="edgeStyle=entityRelationEdgeStyle;fontSize=12;html=1;endArrow=ERone;endFill=1;rounded=0;strokeColor=#666666;shadow=0;fillColor=#f5f5f5;gradientColor=#b3b3b3;fontColor=#000000;" parent="1" source="25" target="24" edge="1">
                    <mxGeometry width="100" height="100" relative="1" as="geometry">
                        <mxPoint x="420" y="800" as="sourcePoint"/>
                        <mxPoint x="520" y="700" as="targetPoint"/>
                    </mxGeometry>
                </mxCell>
                <mxCell id="33" value="" style="edgeStyle=entityRelationEdgeStyle;fontSize=12;html=1;endArrow=ERoneToMany;rounded=0;strokeColor=#666666;shadow=0;fillColor=#f5f5f5;gradientColor=#b3b3b3;fontColor=#000000;" parent="1" source="25" target="3" edge="1">
                    <mxGeometry width="100" height="100" relative="1" as="geometry">
                        <mxPoint x="420" y="800" as="sourcePoint"/>
                        <mxPoint x="520" y="700" as="targetPoint"/>
                    </mxGeometry>
                </mxCell>
                <mxCell id="34" value="" style="edgeStyle=entityRelationEdgeStyle;fontSize=12;html=1;endArrow=ERoneToMany;rounded=0;strokeColor=#666666;shadow=0;fillColor=#f5f5f5;gradientColor=#b3b3b3;fontColor=#000000;" parent="1" source="26" target="3" edge="1">
                    <mxGeometry width="100" height="100" relative="1" as="geometry">
                        <mxPoint x="170" y="840" as="sourcePoint"/>
                        <mxPoint x="270" y="740" as="targetPoint"/>
                    </mxGeometry>
                </mxCell>
                <mxCell id="35" value="" style="edgeStyle=entityRelationEdgeStyle;fontSize=12;html=1;endArrow=ERoneToMany;rounded=0;strokeColor=#666666;shadow=0;fillColor=#f5f5f5;gradientColor=#b3b3b3;fontColor=#000000;" parent="1" source="26" target="4" edge="1">
                    <mxGeometry width="100" height="100" relative="1" as="geometry">
                        <mxPoint x="170" y="690" as="sourcePoint"/>
                        <mxPoint x="270" y="590" as="targetPoint"/>
                    </mxGeometry>
                </mxCell>
                <mxCell id="36" value="&lt;u&gt;IndustryID&lt;/u&gt;" style="ellipse;whiteSpace=wrap;html=1;align=center;strokeColor=#666666;shadow=0;fillColor=#f5f5f5;gradientColor=#b3b3b3;fontColor=#000000;" parent="1" vertex="1">
                    <mxGeometry x="400" y="370" width="100" height="40" as="geometry"/>
                </mxCell>
                <mxCell id="37" value="IndustryType" style="ellipse;whiteSpace=wrap;html=1;align=center;strokeColor=#666666;shadow=0;fillColor=#f5f5f5;gradientColor=#b3b3b3;fontColor=#000000;" parent="1" vertex="1">
                    <mxGeometry x="500" y="370" width="100" height="40" as="geometry"/>
                </mxCell>
                <mxCell id="38" value="" style="endArrow=none;html=1;rounded=0;strokeColor=#666666;shadow=0;fillColor=#f5f5f5;gradientColor=#b3b3b3;fontColor=#000000;" parent="1" source="36" target="24" edge="1">
                    <mxGeometry relative="1" as="geometry">
                        <mxPoint x="240" y="350" as="sourcePoint"/>
                        <mxPoint x="400" y="350" as="targetPoint"/>
                    </mxGeometry>
                </mxCell>
                <mxCell id="39" value="" style="endArrow=none;html=1;rounded=0;strokeColor=#666666;shadow=0;fillColor=#f5f5f5;gradientColor=#b3b3b3;fontColor=#000000;" parent="1" source="24" target="37" edge="1">
                    <mxGeometry relative="1" as="geometry">
                        <mxPoint x="240" y="350" as="sourcePoint"/>
                        <mxPoint x="400" y="350" as="targetPoint"/>
                    </mxGeometry>
                </mxCell>
                <mxCell id="40" value="" style="edgeStyle=entityRelationEdgeStyle;fontSize=12;html=1;endArrow=ERoneToMany;rounded=0;strokeColor=#666666;shadow=0;fillColor=#f5f5f5;gradientColor=#b3b3b3;fontColor=#000000;" parent="1" source="29" target="4" edge="1">
                    <mxGeometry width="100" height="100" relative="1" as="geometry">
                        <mxPoint x="70" y="590" as="sourcePoint"/>
                        <mxPoint x="170" y="490" as="targetPoint"/>
                    </mxGeometry>
                </mxCell>
                <mxCell id="41" value="" style="edgeStyle=entityRelationEdgeStyle;fontSize=12;html=1;endArrow=ERoneToMany;rounded=0;strokeColor=#666666;shadow=0;fillColor=#f5f5f5;gradientColor=#b3b3b3;fontColor=#000000;" parent="1" source="29" target="2" edge="1">
                    <mxGeometry width="100" height="100" relative="1" as="geometry">
                        <mxPoint x="70" y="590" as="sourcePoint"/>
                        <mxPoint x="170" y="490" as="targetPoint"/>
                    </mxGeometry>
                </mxCell>
                <mxCell id="42" value="QuarterDate" style="ellipse;whiteSpace=wrap;html=1;align=center;strokeColor=#666666;shadow=0;fillColor=#f5f5f5;gradientColor=#b3b3b3;fontColor=#000000;" parent="1" vertex="1">
                    <mxGeometry x="235" y="890" width="100" height="40" as="geometry"/>
                </mxCell>
                <mxCell id="43" value="" style="endArrow=none;html=1;rounded=0;strokeColor=#666666;shadow=0;fillColor=#f5f5f5;gradientColor=#b3b3b3;fontColor=#000000;" parent="1" source="5" target="42" edge="1">
                    <mxGeometry relative="1" as="geometry">
                        <mxPoint x="320" y="560" as="sourcePoint"/>
                        <mxPoint x="480" y="560" as="targetPoint"/>
                    </mxGeometry>
                </mxCell>
                <mxCell id="44" value="QuarterID" style="ellipse;whiteSpace=wrap;html=1;align=center;fontStyle=4;strokeColor=#666666;shadow=0;fillColor=#f5f5f5;gradientColor=#b3b3b3;fontColor=#000000;" parent="1" vertex="1">
                    <mxGeometry x="120" y="890" width="100" height="40" as="geometry"/>
                </mxCell>
                <mxCell id="45" value="AmountID" style="ellipse;whiteSpace=wrap;html=1;align=center;fontStyle=4;strokeColor=#666666;shadow=0;fillColor=#f5f5f5;gradientColor=#b3b3b3;fontColor=#000000;" parent="1" vertex="1">
                    <mxGeometry x="-110" y="240" width="100" height="40" as="geometry"/>
                </mxCell>
                <mxCell id="46" value="" style="endArrow=none;html=1;rounded=0;strokeColor=#666666;shadow=0;fillColor=#f5f5f5;gradientColor=#b3b3b3;fontColor=#000000;" parent="1" source="45" target="2" edge="1">
                    <mxGeometry relative="1" as="geometry">
                        <mxPoint x="-100" y="550" as="sourcePoint"/>
                        <mxPoint x="60" y="550" as="targetPoint"/>
                    </mxGeometry>
                </mxCell>
                <mxCell id="47" value="CompanyID" style="ellipse;whiteSpace=wrap;html=1;align=center;fontStyle=4;strokeColor=#666666;shadow=0;fillColor=#f5f5f5;gradientColor=#b3b3b3;fontColor=#000000;" parent="1" vertex="1">
                    <mxGeometry x="310" y="490" width="100" height="40" as="geometry"/>
                </mxCell>
                <mxCell id="48" value="" style="endArrow=none;html=1;rounded=0;strokeColor=#666666;shadow=0;fillColor=#f5f5f5;gradientColor=#b3b3b3;fontColor=#000000;" parent="1" source="47" target="3" edge="1">
                    <mxGeometry relative="1" as="geometry">
                        <mxPoint x="-120" y="580" as="sourcePoint"/>
                        <mxPoint x="40" y="580" as="targetPoint"/>
                    </mxGeometry>
                </mxCell>
                <mxCell id="49" value="NetAssets" style="ellipse;whiteSpace=wrap;html=1;align=center;strokeColor=#666666;shadow=0;fillColor=#f5f5f5;gradientColor=#b3b3b3;fontColor=#000000;" parent="1" vertex="1">
                    <mxGeometry x="190" y="330" width="100" height="40" as="geometry"/>
                </mxCell>
                <mxCell id="50" value="" style="endArrow=none;html=1;rounded=0;strokeColor=#666666;shadow=0;fillColor=#f5f5f5;gradientColor=#b3b3b3;fontColor=#000000;" parent="1" source="49" target="2" edge="1">
                    <mxGeometry relative="1" as="geometry">
                        <mxPoint x="110" y="570" as="sourcePoint"/>
                        <mxPoint x="270" y="570" as="targetPoint"/>
                    </mxGeometry>
                </mxCell>
            </root>
        </mxGraphModel>
    </diagram>
</mxfile>